<svg width="549" height="657" viewBox="0 0 549 657" fill="none" xmlns="http://www.w3.org/2000/svg">
<rect width="549" height="657" fill="#1C1E1D" fill-opacity="0.3"/>
<path d="M178 311C178 308.791 179.791 307 182 307H367C369.209 307 371 308.791 371 311V347C371 349.209 369.209 351 367 351H182C179.791 351 178 349.209 178 347V311Z" fill="#EEFFF3"/>
<path d="M213.727 323.091H205.31V334H206.951V324.497H212.086V334H213.727V323.091ZM219.792 334.165C221.576 334.165 222.839 333.286 223.201 331.955L221.694 331.683C221.406 332.455 220.713 332.849 219.808 332.849C218.444 332.849 217.528 331.965 217.485 330.388H223.302V329.824C223.302 326.868 221.534 325.712 219.68 325.712C217.4 325.712 215.898 327.448 215.898 329.962C215.898 332.503 217.379 334.165 219.792 334.165ZM217.491 329.195C217.555 328.034 218.396 327.027 219.691 327.027C220.926 327.027 221.736 327.944 221.741 329.195H217.491ZM225.219 337.068H226.812V332.727H226.908C227.196 333.249 227.781 334.16 229.273 334.16C231.254 334.16 232.693 332.572 232.693 329.925C232.693 327.272 231.233 325.712 229.257 325.712C227.739 325.712 227.19 326.638 226.908 327.145H226.775V325.818H225.219V337.068ZM226.78 329.909C226.78 328.199 227.526 327.065 228.916 327.065C230.36 327.065 231.084 328.284 231.084 329.909C231.084 331.55 230.338 332.801 228.916 332.801C227.547 332.801 226.78 331.63 226.78 329.909ZM238.153 334.165C239.938 334.165 241.2 333.286 241.562 331.955L240.055 331.683C239.767 332.455 239.075 332.849 238.169 332.849C236.806 332.849 235.89 331.965 235.847 330.388H241.664V329.824C241.664 326.868 239.895 325.712 238.042 325.712C235.762 325.712 234.26 327.448 234.26 329.962C234.26 332.503 235.74 334.165 238.153 334.165ZM235.852 329.195C235.916 328.034 236.758 327.027 238.052 327.027C239.288 327.027 240.098 327.944 240.103 329.195H235.852ZM248.812 325.818H243.581V334H245.152V327.192H248.812V325.818ZM249.327 334H249.838C251.622 334 252.278 332.679 252.405 329.973L252.533 327.192H255.207V334H256.768V325.818H251.058L250.914 329.44C250.813 331.965 250.525 332.62 249.614 332.62H249.321L249.327 334ZM263.921 334H265.418V325.818H261.961C260.075 325.818 258.925 326.793 258.925 328.332C258.925 329.408 259.489 330.202 260.464 330.57L258.552 334H260.182L261.966 330.799H263.921V334ZM263.921 329.51H261.854C260.986 329.51 260.48 329.051 260.485 328.354C260.48 327.651 261.029 327.176 261.961 327.176H263.921V329.51ZM269.249 325.818H267.688V334H269.249V330.602H272.791V334H274.346V325.818H272.791V329.222H269.249V325.818ZM277.341 337.068C278.657 337.068 279.488 336.381 279.962 335.092L283.344 325.834L281.624 325.818L279.551 332.168H279.466L277.394 325.818H275.69L278.683 334.107L278.486 334.65C278.081 335.737 277.511 335.827 276.638 335.587L276.254 336.892C276.446 336.978 276.861 337.068 277.341 337.068ZM284.537 327.192H287.216V334H288.772V327.192H291.44V325.818H284.537V327.192ZM294.835 331.768V325.818H293.275V334H295.006L298.596 328.045V334H300.157V325.818H298.442L294.835 331.768ZM305.769 336.36H307.346V334H313.051V336.36H314.606V332.62H313.349V325.818H307.788L307.532 328.87C307.362 330.932 307.111 332.008 306.435 332.62H305.769V336.36ZM308.139 332.62C308.683 331.859 308.885 330.591 309.045 328.87L309.215 327.182H311.793V332.62H308.139ZM319.839 334.165C321.623 334.165 322.886 333.286 323.248 331.955L321.741 331.683C321.453 332.455 320.76 332.849 319.855 332.849C318.491 332.849 317.575 331.965 317.532 330.388H323.349V329.824C323.349 326.868 321.581 325.712 319.727 325.712C317.447 325.712 315.945 327.448 315.945 329.962C315.945 332.503 317.426 334.165 319.839 334.165ZM317.538 329.195C317.602 328.034 318.443 327.027 319.738 327.027C320.974 327.027 321.783 327.944 321.789 329.195H317.538ZM329.858 332.029L327.269 325.818H325.266V334H326.827V328.05L329.267 334H330.449L332.931 328.071V334H334.482V325.818H332.5L329.858 332.029ZM340.201 334.165C342.507 334.165 344.015 332.477 344.015 329.946C344.015 327.4 342.507 325.712 340.201 325.712C337.894 325.712 336.387 327.4 336.387 329.946C336.387 332.477 337.894 334.165 340.201 334.165ZM340.206 332.828C338.699 332.828 337.995 331.512 337.995 329.941C337.995 328.375 338.699 327.043 340.206 327.043C341.703 327.043 342.406 328.375 342.406 329.941C342.406 331.512 341.703 332.828 340.206 332.828Z" fill="#1C1E1D"/>
</svg>
