<svg width="18" height="18" viewBox="0 0 18 18" fill="none" xmlns="http://www.w3.org/2000/svg">
<g clip-path="url(#clip0_285_6777)">
<path d="M17.49 4.41362V2.19822C17.49 1.12938 16.6155 0.254883 15.5467 0.254883H1.94333C0.864783 0.254883 0 1.12938 0 2.19822V15.8015C0 16.8704 0.864783 17.7449 1.94333 17.7449H15.5467C16.6155 17.7449 17.49 16.8704 17.49 15.8015V13.5861C18.0633 13.2461 18.4617 12.6339 18.4617 11.9149V6.08488C18.4617 5.36585 18.0633 4.7537 17.49 4.41362ZM16.5183 6.08488V11.9149H9.71667V6.08488H16.5183ZM1.94333 15.8015V2.19822H15.5467V4.14155H9.71667C8.64783 4.14155 7.77333 5.01605 7.77333 6.08488V11.9149C7.77333 12.9837 8.64783 13.8582 9.71667 13.8582H15.5467V15.8015H1.94333Z" fill="#1C1E1D"/>
<path d="M12.6313 10.4575C13.4363 10.4575 14.0888 9.80494 14.0888 8.99998C14.0888 8.19503 13.4363 7.54248 12.6313 7.54248C11.8264 7.54248 11.1738 8.19503 11.1738 8.99998C11.1738 9.80494 11.8264 10.4575 12.6313 10.4575Z" fill="#1C1E1D"/>
</g>
<defs>
<clipPath id="clip0_285_6777">
<rect width="18" height="17.49" fill="white" transform="translate(0 0.254883)"/>
</clipPath>
</defs>
</svg>
