<svg width="26" height="26" viewBox="0 0 26 26" fill="none" xmlns="http://www.w3.org/2000/svg">
<path fill-rule="evenodd" clip-rule="evenodd" d="M18.9185 7.83423C18.9185 11.0564 16.3064 13.6685 13.0842 13.6685C9.86207 13.6685 7.25 11.0564 7.25 7.83423C7.25 4.61207 9.86207 2 13.0842 2C16.3064 2 18.9185 4.61207 18.9185 7.83423ZM16.9185 7.83423C16.9185 9.95182 15.2018 11.6685 13.0842 11.6685C10.9666 11.6685 9.25 9.95182 9.25 7.83423C9.25 5.71664 10.9666 4 13.0842 4C15.2018 4 16.9185 5.71664 16.9185 7.83423Z" fill="#8EFFB0"/>
<path d="M4.5 24C4.5 20.4648 7.98375 17.25 12.75 17.25C17.5163 17.25 21 20.4648 21 24H23.5C23.5 18.6987 18.4772 14.75 12.75 14.75C7.02284 14.75 2 18.6987 2 24H4.5Z" fill="#8EFFB0"/>
</svg>
