<svg width="105" height="20" viewBox="0 0 105 20" fill="none" xmlns="http://www.w3.org/2000/svg">
<path d="M11.3277 20H6.25706L7.48587 12.5282H0L0.861582 7.47175H8.31921L9.54802 0H14.6328L13.404 7.47175H20.8616L20 12.5282H12.5565L11.3277 20Z" fill="#EEFFF3"/>
<path d="M36.3932 19.3588H23.3612L26.5627 0.0744468H31.7981L29.3122 15.1404H37.1088L36.3932 19.3588Z" fill="#EEFFF3"/>
<path fill-rule="evenodd" clip-rule="evenodd" d="M53.3871 14.6884C52.3701 17.7016 49.5076 19.6225 45.4775 19.6225C40.8447 19.6225 38.4718 16.8353 39.2628 12.1648C40.0161 7.68273 43.3682 4.70721 47.8504 4.70721C52.2195 4.70721 54.5547 7.53207 53.8014 12.1272L53.6131 13.3324H44.2063L44.1592 13.5584C43.9332 14.952 44.6488 15.969 46.1931 15.969C47.2477 15.969 48.1893 15.517 48.6413 14.6884H53.3871ZM47.3984 8.3607C46.146 8.3607 45.0349 9.19874 44.743 10.4699H49.2816C49.4699 9.22699 48.679 8.3607 47.3984 8.3607Z" fill="#EEFFF3"/>
<path d="M65.7529 4.89554H63.2576L63.832 1.43038H58.6343L58.0599 4.89554H56.2237L55.5834 8.66202H57.4384L56.3555 15.1969C55.7906 18.21 57.4101 19.7449 61.0636 19.566C62.2312 19.5095 63.1352 19.2647 63.6625 19.114L63.5118 15.4605C63.4632 15.4686 63.4006 15.4802 63.3293 15.4934C63.0693 15.5416 62.6937 15.6112 62.4572 15.6112C61.7793 15.6112 61.525 15.3098 61.6286 14.7072L62.6361 8.66202H65.1126L65.7529 4.89554Z" fill="#EEFFF3"/>
<path d="M74.0038 4.89554H76.4991L75.8588 8.66202H73.3824L72.3748 14.7072C72.2713 15.3098 72.5255 15.6112 73.2035 15.6112C73.4399 15.6112 73.8155 15.5416 74.0755 15.4934C74.1468 15.4802 74.2094 15.4686 74.2581 15.4605L74.4087 19.114C73.8814 19.2647 72.9775 19.5095 71.8099 19.566C68.1564 19.7449 66.5368 18.21 67.1018 15.1969L68.1846 8.66202H66.3296L66.9699 4.89554H68.8061L69.3805 1.43038H74.5782L74.0038 4.89554Z" fill="#EEFFF3"/>
<path fill-rule="evenodd" clip-rule="evenodd" d="M82.9469 19.6225C86.977 19.6225 89.8395 17.7016 90.8565 14.6884H86.1107C85.6587 15.517 84.7171 15.969 83.6625 15.969C82.1182 15.969 81.4026 14.952 81.6286 13.5584L81.6757 13.3324H91.0825L91.2708 12.1272C92.0241 7.53207 89.6889 4.70721 85.3197 4.70721C80.8376 4.70721 77.4855 7.68273 76.7322 12.1648C75.9412 16.8353 78.3141 19.6225 82.9469 19.6225ZM82.2124 10.4699C82.5043 9.19874 83.6154 8.3607 84.8678 8.3607C86.1484 8.3607 86.9393 9.22699 86.751 10.4699H82.2124Z" fill="#EEFFF3"/>
<path d="M97.3842 19.3588H92.1865L94.5971 4.89554H99.6441L99.1922 7.64507H99.3428C100.209 5.61117 101.565 4.70721 103.109 4.70721C103.561 4.70721 103.976 4.78254 104.39 4.89554L103.637 9.33998C103.147 9.15166 102.318 9.07633 101.753 9.07633C100.247 9.07633 98.9285 10.1686 98.6272 11.8259L97.3842 19.3588Z" fill="#EEFFF3"/>
</svg>
