<svg width="26" height="26" viewBox="0 0 26 26" fill="none" xmlns="http://www.w3.org/2000/svg">
<path d="M16.8455 14.0832C17.658 14.0832 18.373 13.639 18.7413 12.9673L22.6197 5.9365C23.0205 5.2215 22.5005 4.33317 21.6772 4.33317H5.64384L4.62551 2.1665H1.08301V4.33317H3.24967L7.14967 12.5557L5.68717 15.199C4.89634 16.6507 5.93634 18.4165 7.58301 18.4165H20.583V16.2498H7.58301L8.77467 14.0832H16.8455ZM6.67301 6.49984H19.8355L16.8455 11.9165H9.24051L6.67301 6.49984ZM7.58301 19.4998C6.39134 19.4998 5.42717 20.4748 5.42717 21.6665C5.42717 22.8582 6.39134 23.8332 7.58301 23.8332C8.77467 23.8332 9.74967 22.8582 9.74967 21.6665C9.74967 20.4748 8.77467 19.4998 7.58301 19.4998ZM18.4163 19.4998C17.2247 19.4998 16.2605 20.4748 16.2605 21.6665C16.2605 22.8582 17.2247 23.8332 18.4163 23.8332C19.608 23.8332 20.583 22.8582 20.583 21.6665C20.583 20.4748 19.608 19.4998 18.4163 19.4998Z" fill="#EEFFF3"/>
</svg>
