<svg width="18" height="18" viewBox="0 0 18 18" fill="none" xmlns="http://www.w3.org/2000/svg">
<g clip-path="url(#clip0_249_823)">
<path d="M12.724 9.6195C13.3798 9.6195 13.957 9.26095 14.2543 8.71877L17.385 3.04326C17.7086 2.46609 17.2889 1.749 16.6242 1.749H3.68164L2.85961 0H0V1.749H1.749L4.8972 8.38645L3.71662 10.5202C3.07824 11.6921 3.91776 13.1175 5.247 13.1175H15.741V11.3685H5.247L6.20895 9.6195H12.724ZM4.51242 3.498H15.1376L12.724 7.8705H6.58498L4.51242 3.498ZM5.247 13.992C4.28505 13.992 3.50674 14.779 3.50674 15.741C3.50674 16.7029 4.28505 17.49 5.247 17.49C6.20895 17.49 6.996 16.7029 6.996 15.741C6.996 14.779 6.20895 13.992 5.247 13.992ZM13.992 13.992C13.03 13.992 12.2517 14.779 12.2517 15.741C12.2517 16.7029 13.03 17.49 13.992 17.49C14.9539 17.49 15.741 16.7029 15.741 15.741C15.741 14.779 14.9539 13.992 13.992 13.992Z" fill="#1C1E1D"/>
</g>
<defs>
<clipPath id="clip0_249_823">
<rect width="18" height="17.49" fill="white"/>
</clipPath>
</defs>
</svg>
