<svg width="55" height="55" viewBox="0 0 55 55" fill="none" xmlns="http://www.w3.org/2000/svg">
<path d="M12.9246 36H19.3362C23.224 36 24.98 34.0643 24.98 31.4996C24.98 28.9105 23.1668 27.4485 21.5088 27.3587V27.1953C23.0443 26.8033 24.3266 25.7578 24.3266 23.6669C24.3266 21.1921 22.6114 19.2727 19.0503 19.2727H12.9246V36ZM15.4484 33.8356V28.4776H19.181C21.2066 28.4776 22.4726 29.7844 22.4726 31.3771C22.4726 32.782 21.517 33.8356 19.0912 33.8356H15.4484ZM15.4484 26.5092V21.4208H18.8952C20.8962 21.4208 21.8518 22.4744 21.8518 23.8629C21.8518 25.4801 20.5287 26.5092 18.8298 26.5092H15.4484ZM33.0619 36.2532C36.0267 36.2532 37.9461 34.4727 38.2156 32.0305H35.8389C35.5285 33.3864 34.4749 34.1868 33.0782 34.1868C31.0118 34.1868 29.6805 32.4634 29.6805 29.7273C29.6805 27.0401 31.0363 25.3494 33.0782 25.3494C34.6301 25.3494 35.5775 26.3295 35.8389 27.5057H38.2156C37.9543 24.9737 35.8879 23.2912 33.0374 23.2912C29.5008 23.2912 27.2139 25.9538 27.2139 29.7844C27.2139 33.5661 29.4191 36.2532 33.0619 36.2532ZM40.8272 36H43.2694V23.4545H40.8272V36ZM42.0605 21.5188C42.9018 21.5188 43.6042 20.8654 43.6042 20.065C43.6042 19.2646 42.9018 18.603 42.0605 18.603C41.2111 18.603 40.5169 19.2646 40.5169 20.065C40.5169 20.8654 41.2111 21.5188 42.0605 21.5188Z" fill="white"/>
</svg>
